<svg width="41" height="40" viewBox="0 0 41 40" fill="none" xmlns="http://www.w3.org/2000/svg">
<path opacity="0.4" d="M10.8612 33.1371C12.5212 33.1371 13.8812 34.4971 13.8812 36.1771C13.8812 37.8371 12.5212 39.1971 10.8612 39.1971C9.18121 39.1971 7.82121 37.8371 7.82121 36.1771C7.82121 34.4971 9.18121 33.1371 10.8612 33.1371ZM33.3612 33.1371C35.0212 33.1371 36.3812 34.4971 36.3812 36.1771C36.3812 37.8371 35.0212 39.1971 33.3612 39.1971C31.6812 39.1971 30.3212 37.8371 30.3212 36.1771C30.3212 34.4971 31.6812 33.1371 33.3612 33.1371Z" fill="url(#paint0_linear_9_328)"/>
<path d="M1.55779 -0.00041929L1.76161 0.0160506L6.53161 0.736051C7.21161 0.858051 7.71161 1.41605 7.77161 2.09605L8.15161 6.57605C8.21161 7.21805 8.73161 7.69805 9.37161 7.69805H36.3816C37.6016 7.69805 38.4016 8.11805 39.2016 9.03805C40.0016 9.95805 40.1416 11.2781 39.9616 12.4761L38.0616 25.5961C37.7016 28.118 35.5416 29.9761 33.0016 29.9761H11.1816C8.52161 29.9761 6.32161 27.9361 6.10161 25.298L4.26161 3.49605L1.24161 2.97605C0.441606 2.83605 -0.118394 2.05605 0.0216064 1.25605C0.161606 0.436051 0.941606 -0.103949 1.76161 0.0160506L1.55779 -0.00041929ZM29.8016 15.0961H24.2616C23.4216 15.0961 22.7616 15.7561 22.7616 16.5961C22.7616 17.416 23.4216 18.0961 24.2616 18.0961H29.8016C30.6416 18.0961 31.3016 17.416 31.3016 16.5961C31.3016 15.7561 30.6416 15.0961 29.8016 15.0961Z" fill="url(#paint1_linear_9_328)"/>
<defs>
<linearGradient id="paint0_linear_9_328" x1="20.862" y1="32.5535" x2="27.1748" y2="44.9471" gradientUnits="userSpaceOnUse">
<stop stop-color="#8D1CFE"/>
<stop offset="1" stop-color="#0038ED"/>
</linearGradient>
<linearGradient id="paint1_linear_9_328" x1="18.2788" y1="-2.88725" x2="51.0806" y2="15.3602" gradientUnits="userSpaceOnUse">
<stop stop-color="#8D1CFE"/>
<stop offset="1" stop-color="#0038ED"/>
</linearGradient>
</defs>
</svg>
